<svg xmlns="http://www.w3.org/2000/svg" viewBox="0 0 800 800" width="800" height="800">
<defs>
<linearGradient id="bg" x1="0" y1="0" x2="1" y2="1"><stop offset="0" stop-color="#FEF2F2"/><stop offset="1" stop-color="#FDE8E8"/></linearGradient>
<linearGradient id="metal" x1="0" y1="0" x2="0" y2="1"><stop offset="0" stop-color="#E5E7EB"/><stop offset="1" stop-color="#9CA3AF"/></linearGradient>
<linearGradient id="dark" x1="0" y1="0" x2="0" y2="1"><stop offset="0" stop-color="#374151"/><stop offset="1" stop-color="#111827"/></linearGradient>
<linearGradient id="screen" x1="0" y1="0" x2="1" y2="1"><stop offset="0" stop-color="#1E3A8A"/><stop offset="0.55" stop-color="#1B2A7B"/><stop offset="1" stop-color="#0F172A"/></linearGradient>
<filter id="sh" x="-20%" y="-20%" width="140%" height="160%"><feDropShadow dx="0" dy="18" stdDeviation="18" flood-color="#0f172a" flood-opacity="0.18"/></filter>
</defs>
<rect width="800" height="800" fill="url(#bg)"/>
<circle cx="650" cy="140" r="120" fill="#fff" opacity="0.45"/>
<circle cx="120" cy="690" r="90" fill="#fff" opacity="0.35"/>
<g filter="url(#sh)"><rect x="170" y="190" width="460" height="300" rx="18" fill="#0B0F1A"/><rect x="190" y="210" width="420" height="260" rx="6" fill="url(#screen)"/>
   <path d="M190 392 Q 337 301 610 353 L 610 470 L 190 470 Z" fill="#D62828" opacity="0.35"/>
   <path d="M190 431 Q 400 340 610 418 L 610 470 L 190 470 Z" fill="#fff" opacity="0.08"/>
        <path d="M120 500 H680 L640 560 H160 Z" fill="#1F2937"/><path d="M180 540 H620" stroke="#D62828" stroke-width="6" stroke-linecap="round"/>
        <path d="M300 300 l40 -30 l40 30 l40 -30 l40 30" stroke="#fff" stroke-width="8" fill="none" opacity="0.8"/></g>

</svg>