<svg xmlns="http://www.w3.org/2000/svg" viewBox="0 0 800 800" width="800" height="800">
<defs>
<linearGradient id="bg" x1="0" y1="0" x2="1" y2="1"><stop offset="0" stop-color="#F0FDF4"/><stop offset="1" stop-color="#DCFCE7"/></linearGradient>
<linearGradient id="metal" x1="0" y1="0" x2="0" y2="1"><stop offset="0" stop-color="#E5E7EB"/><stop offset="1" stop-color="#9CA3AF"/></linearGradient>
<linearGradient id="dark" x1="0" y1="0" x2="0" y2="1"><stop offset="0" stop-color="#374151"/><stop offset="1" stop-color="#111827"/></linearGradient>
<linearGradient id="screen" x1="0" y1="0" x2="1" y2="1"><stop offset="0" stop-color="#1E3A8A"/><stop offset="0.55" stop-color="#1B2A7B"/><stop offset="1" stop-color="#0F172A"/></linearGradient>
<filter id="sh" x="-20%" y="-20%" width="140%" height="160%"><feDropShadow dx="0" dy="18" stdDeviation="18" flood-color="#0f172a" flood-opacity="0.18"/></filter>
</defs>
<rect width="800" height="800" fill="url(#bg)"/>
<circle cx="650" cy="140" r="120" fill="#fff" opacity="0.45"/>
<circle cx="120" cy="690" r="90" fill="#fff" opacity="0.35"/>
<g filter="url(#sh)"><rect x="220" y="200" width="360" height="380" rx="36" fill="url(#dark)"/><rect x="290" y="165" width="220" height="50" rx="20" fill="#4B5563"/>
        <rect x="260" y="250" width="280" height="130" rx="12" fill="#0B1220"/><text x="400" y="335" text-anchor="middle" font-family="Segoe UI, Arial" font-size="64" font-weight="700" fill="#06B6D4">UPS</text>
        <circle cx="300" cy="450" r="22" fill="#374151"/><circle cx="370" cy="450" r="22" fill="#374151"/><rect x="430" y="432" width="90" height="36" rx="8" fill="#374151"/>
        <path d="M400 500 l-20 40 h24 l-12 36 l40 -52 h-26 l14 -24 z" fill="#06B6D4"/></g>

</svg>